<svg xmlns="http://www.w3.org/2000/svg" viewBox="0 0 512 512"><path d="M30.41 0C22.057 0 14.126 2.944 8.535 8.531 2.945 14.121 0 22.044 0 30.393v451.214c0 8.35 2.945 16.274 8.535 21.862C14.125 509.056 22.057 512 30.41 512h195.182c8.353 0 16.29-2.947 21.88-8.545S256 489.921 256 481.557V347.629c0-8.348-2.945-16.274-8.535-21.861-5.59-5.588-13.52-8.532-21.873-8.532-8.353 0-16.282 2.944-21.873 8.532-5.59 5.587-8.698 13.515-8.537 21.86v103.536H60.872V60.787h134.31v103.36c-.15 8.442 2.844 16.47 8.48 22.06 5.634 5.59 13.576 8.506 21.93 8.506 8.353 0 16.282-2.944 21.873-8.531 5.59-5.588 8.535-13.513 8.535-21.862V30.393c0-8.35-2.945-16.274-8.535-21.862C241.875 2.944 233.945 0 225.592 0H30.41zm307.094 82.018c-8.734-.203-17.122 3.114-24.781 10.558h-.002c-14.715 14.805-14.715 36.926 0 51.64l74.82 74.77h-224.54c-22.116 0-36.83 14.718-36.83 36.836 0 22.12 14.713 36.834 36.83 36.834h224.4l-74.77 74.772c-14.715 14.806-14.715 36.923 0 51.638 16.897 14.766 37.16 14.364 51.64 0L495.3 288.033c23.138-15.753 21.32-51.156.197-64.316L364.36 92.577c-9.042-6.635-18.12-10.357-26.855-10.56z"/></svg>