<svg xmlns="http://www.w3.org/2000/svg" width="933.333" height="933.333" viewBox="0 0 700 700"><path d="M112 310v40h79v-80h-79v40zm119 0v40h79v-80h-79v40zm119 0v40h80l-.2-39.8-.3-39.7-39.7-.3-39.8-.2v40zM112 429.5V469h79v-79h-79v39.5zm119 0V469h79v-79h-79v39.5zm249.2 2.2c-4.4 2.1-8.9 7.4-10.1 12-1.5 5.3-1.5 85.5 0 90.8.7 2.3 2.8 5.7 5.3 8.1 6.2 6.3 8.6 6.6 56.8 6.2 40.5-.3 41.4-.3 45.5-2.5 7.5-4.1 10.9-10.6 10.1-19.9-.6-6.6-4.3-11.8-10.8-15.2-4.3-2.1-5.2-2.2-36.2-2.2H509v-31.8c0-28.7-.2-32.1-1.9-35.7-2.2-4.7-6.4-8.9-10.4-10.4-4.1-1.6-12.7-1.3-16.5.6zM63.5 113.4c-10.3 3.3-18.5 9.5-24.2 18.4-7.3 11.4-6.7-5.3-7.1 194.2-.2 124.4.1 181.5.8 186 2.6 16.1 14 29.4 29.8 34.8 4.2 1.5 18.5 1.7 148.5 2.2l143.7.5 3.8 11c19.5 55.8 66.2 95.2 124.7 105.2 11.1 1.9 38.1 2.1 48.5.4 35.1-5.7 64.5-20.6 89-45.1s39.4-53.9 45.1-89c1.7-10.4 1.5-37.4-.4-48.5-10-58.5-49.5-105.3-105.2-124.7l-11-3.8-.5-103.7c-.5-82.4-.8-104.6-1.9-107.8-2.5-7.5-6.3-13.8-11.5-19.1-9.4-9.4-17.8-12.4-34.8-12.4H489v11.8c0 18.8-3.2 27.6-13.6 37.1-7.7 7.1-14.5 9.5-26.4 9.6-8.6 0-10.1-.3-16-3.1-8.3-3.9-15.5-11.1-19.4-19.4-3-6.2-3.1-7.2-3.4-21.3l-.3-14.7H171v12.2c0 17.9-2.8 26.3-11.7 35.1-12.3 12.4-30.9 15.1-46.8 6.9-6.1-3.1-13.4-11-16.9-18.2-3-6.2-3.1-7.1-3.4-21.3l-.4-14.7-12.1.1c-6.9 0-13.9.6-16.2 1.3zm445.5 177v59.3l-10.1.7c-52.5 3.6-98.8 31.8-126 76.6-13.1 21.6-20.7 45.7-22.5 71.9l-.7 10.1H212.1c-105.8 0-138-.3-138.9-1.2-.9-.9-1.2-33.2-1.2-139V231h437v59.4zm19.3 101.1c65 11.3 108.6 72 98.2 136.5-7.1 43.4-38.2 79.9-80.3 94-55.1 18.5-116.4-6.7-143-58.8-9.9-19.2-13.7-36.9-12.9-58.7 1.2-31.5 12.5-57.4 34.7-79.5 18.9-19 40.8-29.9 69-34.3 6.4-1 26.6-.6 34.3.8zM124.7 33.4c-4.8 1.8-8.3 5-10.8 9.9-1.9 3.6-1.9 5.9-1.7 49.5l.3 45.8 2.4 3.6c6.9 10 20.6 11.9 29.3 4 6.9-6.3 6.8-5.1 6.8-54.5 0-43.9 0-44.3-2.2-48.7-4.4-8.6-15.2-12.9-24.1-9.6zm317.9 0c-4.7 1.8-8.9 5.7-11.3 10.5-1.7 3.3-1.8 7.3-1.8 47.6 0 43.8 0 44 2.3 48.6 1.4 2.8 3.9 5.8 6.4 7.5 3.6 2.5 5 2.9 11.4 2.9 6.5 0 7.6-.3 11.1-3.1 2.1-1.6 4.8-5 6.1-7.5l2.2-4.4-.2-45.2-.3-45.1-3-4.3c-5.2-7.3-14.8-10.5-22.9-7.5z"/></svg>