<svg xmlns="http://www.w3.org/2000/svg" viewBox="0 0 512 512"><path d="M39.864 159.455h349.638V385.35H39.864z" fill="#fff"/><path d="M81.625 197.875V256c7.525 3.16 24.47 27.326 30.445 29.063H81.625v58.125h.004v.006h.016v.013h.025v.026h.033v.035h.045v.045h.055v.054h.064v.065h.072l34.469 34.758 278.904-.528.846-97.236-82.032-82.545v-.006H256v30.637l-29.063-30.637h-58.125v28.637l-29.062-28.648v.011z" fill="#ddd"/><path d="M372.49 276.373c52.444 0 95.107 42.661 95.107 95.106 0 52.445-42.663 95.108-95.108 95.108-52.445 0-95.108-42.663-95.108-95.108 0-52.445 42.663-95.107 95.108-95.107z" fill="#fff"/><path d="M452.408 439.49l6.585-29.804-91.01-91.228v-.006l-20.89-.148v78.902l75.793 56.872z" fill="#ddd"/><path d="M168.813 285.063v58.125h58.125v-58.125h-58.125zm-87.188 0v58.125h58.125v-58.125H81.625zM256 197.875V256h58.125v-58.125H256zm-87.187 0V256h58.125v-58.125h-58.125zm-87.188 0V256h58.125v-58.125H81.625zM328.656 23.5c-8.033 0-14.531 6.5-14.531 14.531v58.125c0 8.032 6.5 14.531 14.531 14.531 8.032 0 14.531-6.499 14.531-14.53V38.03c0-8.032-6.5-14.531-14.53-14.531zm-232.5 0c-8.03 0-14.531 6.5-14.531 14.531v58.125c0 8.031 6.498 14.531 14.531 14.531 8.031 0 14.531-6.499 14.531-14.53V38.03c0-8.03-6.499-14.531-14.53-14.531zM54.988 81.625c-17.397 0-31.488 14.303-31.488 31.957v255.773c0 17.596 14.092 31.957 31.49 31.957h204.674C272.571 451.45 318.087 488.5 372.25 488.5c64.198 0 116.25-52.05 116.25-116.25 0-54.163-37.051-99.68-87.188-112.586V113.582c0-17.654-14.077-31.955-31.474-31.955h-12.12v14.53c0 16.006-13.027 29.064-29.062 29.064-16.035 0-29.062-13.058-29.062-29.065V81.625H125.219v14.531c0 16.007-13.028 29.063-29.063 29.063-16.035 0-29.062-13.056-29.062-29.063V81.625H54.988zm-2.425 87.188H372.25V256C308.052 256 256 308.052 256 372.25H54.99c-1.32 0-2.428-1.363-2.428-2.895V168.813zm319.687 116.25c48.078 0 87.188 39.109 87.188 87.187 0 48.078-39.11 87.188-87.188 87.188s-87.188-39.11-87.188-87.188 39.11-87.188 87.188-87.188zm-14.531 29.062c-8.032 0-14.531 6.5-14.531 14.531v58.125c0 8.032 6.499 14.531 14.53 14.531h58.126c8.032 0 14.531-6.499 14.531-14.53 0-8.033-6.5-14.532-14.531-14.532H372.25v-43.594c0-8.032-6.5-14.531-14.531-14.531z" fill="#6f45c9"/></svg>