<svg xmlns="http://www.w3.org/2000/svg" viewBox="0 0 512 512" width="512" height="512"><path d="M128 213.333c-23.573 0-42.667 19.094-42.667 42.667s19.094 42.667 42.667 42.667 42.667-19.094 42.667-42.667-19.094-42.667-42.667-42.667zm256 0c-23.573 0-42.667 19.094-42.667 42.667s19.094 42.667 42.667 42.667 42.667-19.094 42.667-42.667-19.094-42.667-42.667-42.667zm-128 0c-23.573 0-42.667 19.094-42.667 42.667s19.094 42.667 42.667 42.667 42.667-19.094 42.667-42.667-19.094-42.667-42.667-42.667z" fill="#6f45c9"/></svg>